<?xml version="1.0" encoding="UTF-8"?>

<svg version="1.2" baseProfile="tiny" width="25mm" height="25mm" viewBox="0 0 2500 2500" preserveAspectRatio="xMidYMid" fill-rule="evenodd" stroke-width="28.222" stroke-linejoin="round" xmlns="http://www.w3.org/2000/svg" xmlns:xlink="http://www.w3.org/1999/xlink" xml:space="preserve">
 <g visibility="visible" id="MasterSlide_1_Predeterminado">
  <desc>Master slide
  </desc>
  <rect fill="none" stroke="none" x="0" y="0" width="2500" height="2500"/>
 </g>
 <g visibility="visible" id="Slide_1_page1">
  <g>
   <path fill="rgb(255,51,51)" stroke="none" d="M 1200,2300 C 997,2300 825,2254 650,2153 475,2051 349,1925 247,1750 146,1575 100,1403 100,1200 100,997 146,825 247,650 349,475 475,349 650,247 825,146 997,100 1200,100 1403,100 1575,146 1750,247 1925,349 2051,475 2153,650 2254,825 2300,997 2300,1200 2300,1403 2254,1575 2153,1750 2051,1925 1925,2051 1750,2153 1575,2254 1403,2300 1200,2300 L 1200,2300 Z"/>
   <path fill="none" stroke="rgb(128,128,128)" id="Drawing_1_0" stroke-linejoin="round" d="M 1200,2300 C 997,2300 825,2254 650,2153 475,2051 349,1925 247,1750 146,1575 100,1403 100,1200 100,997 146,825 247,650 349,475 475,349 650,247 825,146 997,100 1200,100 1403,100 1575,146 1750,247 1925,349 2051,475 2153,650 2254,825 2300,997 2300,1200 2300,1403 2254,1575 2153,1750 2051,1925 1925,2051 1750,2153 1575,2254 1403,2300 1200,2300 L 1200,2300 Z"/>
  </g>
  <g>
   <path fill="rgb(207,231,245)" stroke="none" d="M 980,1420 C 899,1420 830,1402 760,1361 690,1321 639,1270 599,1200 558,1130 540,1061 540,980 540,899 558,830 599,760 639,690 690,639 760,599 830,558 899,540 980,540 1061,540 1130,558 1200,599 1270,639 1321,690 1361,760 1402,830 1420,899 1420,980 1420,1061 1402,1130 1361,1200 1321,1270 1270,1321 1200,1361 1130,1402 1061,1420 980,1420 L 980,1420 Z"/>
   <path fill="none" stroke="rgb(153,153,255)" id="Drawing_2_0" stroke-linejoin="round" d="M 980,1420 C 899,1420 830,1402 760,1361 690,1321 639,1270 599,1200 558,1130 540,1061 540,980 540,899 558,830 599,760 639,690 690,639 760,599 830,558 899,540 980,540 1061,540 1130,558 1200,599 1270,639 1321,690 1361,760 1402,830 1420,899 1420,980 1420,1061 1402,1130 1361,1200 1321,1270 1270,1321 1200,1361 1130,1402 1061,1420 980,1420 L 980,1420 Z"/>
  </g>
  <g>
   <path fill="rgb(207,231,245)" stroke="none" d="M 1420,1860 C 1339,1860 1270,1842 1200,1801 1130,1761 1079,1710 1039,1640 998,1570 980,1501 980,1420 980,1339 998,1270 1039,1200 1079,1130 1130,1079 1200,1039 1270,998 1339,980 1420,980 1501,980 1570,998 1640,1039 1710,1079 1761,1130 1801,1200 1842,1270 1860,1339 1860,1420 1860,1501 1842,1570 1801,1640 1761,1710 1710,1761 1640,1801 1570,1842 1501,1860 1420,1860 L 1420,1860 Z"/>
   <path fill="none" stroke="rgb(221,221,221)" id="Drawing_3_0" stroke-linejoin="round" d="M 1420,1860 C 1339,1860 1270,1842 1200,1801 1130,1761 1079,1710 1039,1640 998,1570 980,1501 980,1420 980,1339 998,1270 1039,1200 1079,1130 1130,1079 1200,1039 1270,998 1339,980 1420,980 1501,980 1570,998 1640,1039 1710,1079 1761,1130 1801,1200 1842,1270 1860,1339 1860,1420 1860,1501 1842,1570 1801,1640 1761,1710 1710,1761 1640,1801 1570,1842 1501,1860 1420,1860 L 1420,1860 Z"/>
  </g>
 </g>
</svg>